<svg id="Слой_1" data-name="Слой 1" xmlns="http://www.w3.org/2000/svg" width="72" height="72" viewBox="0 0 72 72">
  <defs>
    <style>
      .cls-1 {
        fill: #3029d9;
      }

      .cls-2, .cls-3 {
        fill: none;
        stroke: #fff;
        stroke-linecap: round;
        stroke-linejoin: round;
        stroke-width: 4px;
      }

      .cls-3 {
        isolation: isolate;
        opacity: 0.4;
      }
    </style>
  </defs>
  <path class="cls-1" d="M36,0A36,36,0,0,1,72,36h0A36,36,0,0,1,36,72H0V36A36,36,0,0,1,36,0Z" transform="translate(0 0)"/>
  <path class="cls-2" d="M17,21c.67-1.1,4.34-5.11,7-5a3.46,3.46,0,0,1,2,1.09c1.29,1.26,5,6,5.2,7,.51,2.46-2.42,3.88-1.53,6.36A20.76,20.76,0,0,0,41.52,42.3c2.48.9,3.9-2,6.36-1.52,1,.21,5.77,3.91,7,5.2A3.46,3.46,0,0,1,56,48c.1,2.76-4.16,6.48-5,7-2,1.4-4.52,1.37-7.63-.07-8.7-3.62-22.59-17.25-26.28-26.28C15.69,25.53,15.6,23,17,21Z" transform="translate(0 0)"/>
  <path class="cls-3" d="M20,18.72l3.1,4.59" transform="translate(0 0)"/>
  <path class="cls-3" d="M48.35,48.77l4.6,3.6" transform="translate(0 0)"/>
</svg>
