<svg width="47" height="20" viewBox="0 0 47 20" fill="none" xmlns="http://www.w3.org/2000/svg">
<path d="M44.7262 11.0325C45.4525 11.0325 46.0414 10.4437 46.0414 9.71729C46.0414 8.99091 45.4525 8.40207 44.7262 8.40207V11.0325ZM0.394224 8.78729C-0.119398 9.30091 -0.119398 10.1337 0.394224 10.6473L8.76417 19.0172C9.2778 19.5309 10.1105 19.5309 10.6242 19.0172C11.1378 18.5036 11.1378 17.6709 10.6242 17.1572L3.18421 9.71729L10.6242 2.27733C11.1378 1.76371 11.1378 0.930962 10.6242 0.41734C10.1105 -0.0962811 9.2778 -0.0962811 8.76417 0.41734L0.394224 8.78729ZM44.7262 8.40207H1.32422V11.0325H44.7262V8.40207Z" fill="#E97522"/>
</svg>
