<svg width="46" height="46" viewBox="0 0 46 46" fill="none" xmlns="http://www.w3.org/2000/svg">
<path fill-rule="evenodd" clip-rule="evenodd" d="M44.7873 7.93197C44.1939 6.42111 43.4117 5.13959 42.1306 3.85806C40.8494 2.57654 39.5683 1.79413 38.0579 1.20059C36.6014 0.634018 34.9291 0.256305 32.4747 0.134897C30.0203 0.0269795 29.2381 0 22.9942 0C16.7503 0 15.9681 0.0269795 13.5137 0.134897C11.0728 0.256305 9.40057 0.634018 7.93062 1.21408C6.42021 1.80762 5.13906 2.59003 3.85791 3.87155C2.57676 5.15308 1.79459 6.4346 1.20121 7.94546C0.634808 9.40235 0.257206 11.0751 0.135834 13.5167C0.0279481 15.9718 0.000976562 16.7543 0.000976562 23C0.000976562 29.2457 0.0279481 30.0282 0.135834 32.4833C0.257206 34.9384 0.634808 36.6111 1.2147 38.068C1.80807 39.5789 2.59025 40.8604 3.8714 42.1419C5.15254 43.4235 6.43369 44.2059 7.9441 44.7994C9.40057 45.366 11.0728 45.7572 13.5272 45.8651C15.9816 45.973 16.7638 46 23.0077 46C29.2516 46 30.0338 45.973 32.4882 45.8651C34.9291 45.7572 36.6014 45.366 38.0713 44.7994C39.5817 44.2059 40.8629 43.4235 42.144 42.1419C43.4252 40.8604 44.2074 39.5789 44.8007 38.068C45.3671 36.6111 45.7582 34.9384 45.8661 32.4833C45.974 30.0282 46.001 29.2457 46.001 23C46.001 16.7543 45.974 15.9718 45.8661 13.5167C45.7447 11.0751 45.3537 9.40235 44.7873 7.93197ZM22.9942 34.817C16.4671 34.817 11.1807 29.529 11.1807 23C11.1807 16.471 16.4671 11.183 22.9942 11.183C29.5213 11.183 34.8078 16.471 34.8078 23C34.8078 29.529 29.5213 34.817 22.9942 34.817ZM35.2798 13.4897C33.7559 13.4897 32.5152 12.2487 32.5152 10.7243C32.5152 9.2 33.7559 7.95894 35.2798 7.95894C36.8037 7.95894 38.0444 9.2 38.0444 10.7243C38.0309 12.2487 36.8037 13.4897 35.2798 13.4897ZM30.6676 23C30.6676 27.2358 27.2423 30.6622 23.0077 30.6622C18.7732 30.6622 15.3478 27.2358 15.3478 23C15.3478 18.7642 18.7732 15.3378 23.0077 15.3378C27.2288 15.3378 30.6676 18.7642 30.6676 23Z" fill="#B5DFFF"/>
</svg>
