<svg width="244" height="54" viewBox="0 0 244 54" fill="none" xmlns="http://www.w3.org/2000/svg">
<path fill-rule="evenodd" clip-rule="evenodd" d="M0 44.0705C0.0378915 49.5609 4.50043 54 9.99977 54H235C239.971 54 244 49.9706 244 45V0H0V44.0705Z" fill="url(#paint0_linear_6_2)"/>
<path d="M120.825 29.684C120.825 30.0982 121.161 30.434 121.575 30.434C121.989 30.434 122.325 30.0982 122.325 29.684L120.825 29.684ZM122.105 14.4096C121.812 14.1167 121.337 14.1167 121.044 14.4096L116.271 19.1825C115.979 19.4754 115.979 19.9503 116.271 20.2432C116.564 20.5361 117.039 20.5361 117.332 20.2432L121.575 16.0005L125.817 20.2432C126.11 20.5361 126.585 20.5361 126.878 20.2432C127.171 19.9503 127.171 19.4754 126.878 19.1825L122.105 14.4096ZM122.325 29.684L122.325 14.9399L120.825 14.9399L120.825 29.684L122.325 29.684Z" fill="white"/>
<path fill-rule="evenodd" clip-rule="evenodd" d="M124.651 24.9445C124.774 24.9445 124.889 24.9161 124.993 24.8655H130.003C130.279 24.8655 130.502 25.0893 130.502 25.3655V35.0565C130.502 35.3326 130.279 35.5565 130.002 35.5565H113.147C112.87 35.5565 112.647 35.3326 112.647 35.0565V25.3655C112.647 25.0893 112.87 24.8655 113.147 24.8655H118.053C118.156 24.9161 118.272 24.9445 118.394 24.9445C118.826 24.9445 119.176 24.5909 119.176 24.1546C119.176 23.7361 118.854 23.3935 118.446 23.3665V23.3655H118.427C118.416 23.365 118.405 23.3648 118.394 23.3648C118.383 23.3648 118.372 23.365 118.361 23.3655H113.147C112.042 23.3655 111.147 24.2609 111.147 25.3655V35.0565C111.147 36.161 112.042 37.0565 113.147 37.0565H130.002C131.107 37.0565 132.002 36.161 132.002 35.0565V25.3655C132.002 24.2609 131.107 23.3655 130.003 23.3655H124.703V23.3665C124.686 23.3653 124.669 23.3648 124.651 23.3648C124.219 23.3648 123.869 23.7184 123.869 24.1546C123.869 24.5909 124.219 24.9445 124.651 24.9445Z" fill="white"/>
<defs>
<linearGradient id="paint0_linear_6_2" x1="4.53662e-06" y1="3.04225" x2="27.8246" y2="106.159" gradientUnits="userSpaceOnUse">
<stop stop-color="#6AC3FB"/>
<stop offset="0.932292" stop-color="#47A7E3"/>
</linearGradient>
</defs>
</svg>
