<svg width="298" height="54" viewBox="0 0 298 54" fill="none" xmlns="http://www.w3.org/2000/svg">
<path fill-rule="evenodd" clip-rule="evenodd" d="M0 44.0705C0.0378915 49.5609 4.50043 54 9.99977 54H289C293.971 54 298 49.9706 298 45V0H0V44.0705Z" fill="url(#paint0_linear_6_2)"/>
<path d="M147.731 29.684C147.731 30.0982 148.066 30.434 148.481 30.434C148.895 30.434 149.231 30.0982 149.231 29.684L147.731 29.684ZM149.011 14.4096C148.718 14.1167 148.243 14.1167 147.95 14.4096L143.177 19.1825C142.884 19.4754 142.884 19.9503 143.177 20.2432C143.47 20.5361 143.945 20.5361 144.238 20.2432L148.481 16.0005L152.723 20.2432C153.016 20.5361 153.491 20.5361 153.784 20.2432C154.077 19.9503 154.077 19.4754 153.784 19.1825L149.011 14.4096ZM149.231 29.684L149.231 14.9399L147.731 14.9399L147.731 29.684L149.231 29.684Z" fill="white"/>
<path fill-rule="evenodd" clip-rule="evenodd" d="M152.238 24.9445C152.387 24.9445 152.529 24.9161 152.655 24.8655H159.216C159.492 24.8655 159.716 25.0893 159.716 25.3655V35.0565C159.716 35.3326 159.492 35.5565 159.216 35.5565H137.745C137.468 35.5565 137.245 35.3326 137.245 35.0565V25.3655C137.245 25.0893 137.468 24.8655 137.745 24.8655H144.179C144.305 24.9161 144.447 24.9445 144.596 24.9445C145.124 24.9445 145.551 24.5909 145.551 24.1546C145.551 23.7361 145.157 23.3935 144.66 23.3665V23.3655H144.636C144.623 23.365 144.61 23.3648 144.596 23.3648C144.582 23.3648 144.569 23.365 144.556 23.3655H137.745C136.64 23.3655 135.745 24.2609 135.745 25.3655V35.0565C135.745 36.161 136.64 37.0565 137.745 37.0565H159.216C160.321 37.0565 161.216 36.161 161.216 35.0565V25.3655C161.216 24.2609 160.321 23.3655 159.216 23.3655H152.301V23.3665C152.28 23.3653 152.259 23.3648 152.238 23.3648C151.71 23.3648 151.283 23.7184 151.283 24.1546C151.283 24.5909 151.71 24.9445 152.238 24.9445Z" fill="white"/>
<defs>
<linearGradient id="paint0_linear_6_2" x1="5.54063e-06" y1="3.04225" x2="23.3038" y2="108.519" gradientUnits="userSpaceOnUse">
<stop stop-color="#6AC3FB"/>
<stop offset="0.932292" stop-color="#47A7E3"/>
</linearGradient>
</defs>
</svg>
