<svg width="80" height="72" viewBox="0 0 80 72" fill="none" xmlns="http://www.w3.org/2000/svg">
<path fill-rule="evenodd" clip-rule="evenodd" d="M0 71.5H70C75.5229 71.5 80 67.0229 80 61.5V0.5H0V71.5Z" fill="url(#paint0_linear_3_13)"/>
<path d="M39.25 39.5C39.25 39.9142 39.5858 40.25 40 40.25C40.4142 40.25 40.75 39.9142 40.75 39.5L39.25 39.5ZM40.5303 24.9697C40.2374 24.6768 39.7626 24.6768 39.4697 24.9697L34.6967 29.7426C34.4038 30.0355 34.4038 30.5104 34.6967 30.8033C34.9896 31.0962 35.4645 31.0962 35.7574 30.8033L40 26.5607L44.2426 30.8033C44.5355 31.0962 45.0104 31.0962 45.3033 30.8033C45.5962 30.5104 45.5962 30.0355 45.3033 29.7426L40.5303 24.9697ZM40.75 39.5L40.75 25.5L39.25 25.5L39.25 39.5L40.75 39.5Z" fill="white"/>
<path fill-rule="evenodd" clip-rule="evenodd" d="M36.95 33.4999H32C30.8954 33.4999 30 34.3954 30 35.4999V44.4999C30 45.6045 30.8954 46.4999 32 46.4999H48C49.1046 46.4999 50 45.6045 50 44.4999V35.4999C50 34.3954 49.1046 33.4999 48 33.4999H43V33.5016C42.9835 33.5005 42.9668 33.4999 42.95 33.4999C42.5357 33.4999 42.2 33.8357 42.2 34.2499C42.2 34.6642 42.5357 34.9999 42.95 34.9999C42.9668 34.9999 42.9835 34.9994 43 34.9983V34.9999H48C48.2761 34.9999 48.5 35.2238 48.5 35.4999V44.4999C48.5 44.7761 48.2761 44.9999 48 44.9999H32C31.7239 44.9999 31.5 44.7761 31.5 44.4999V35.4999C31.5 35.2238 31.7239 34.9999 32 34.9999H36.95H37V34.9983C37.3909 34.9726 37.7 34.6473 37.7 34.2499C37.7 33.8526 37.3909 33.5273 37 33.5016V33.4999H36.95Z" fill="white"/>
<defs>
<linearGradient id="paint0_linear_3_13" x1="1.48742e-06" y1="4.5" x2="72.5" y2="71.5" gradientUnits="userSpaceOnUse">
<stop stop-color="#6AC3FB"/>
<stop offset="0.932292" stop-color="#47A7E3"/>
</linearGradient>
</defs>
</svg>
