<svg width="1920" height="271" viewBox="0 0 1920 271" fill="none" xmlns="http://www.w3.org/2000/svg">
<path d="M1921 24.0909C1667.6 24.0909 1551.39 194.216 1364.02 194.216C1069.24 194.216 1047.39 49.1391 798.641 49.1391C570.351 49.1391 550.358 105.298 415.988 105.298C281.618 105.298 293.242 0 -2 0V265H1921V24.0909Z" fill="#F5FAFF"/>
<path d="M38.0583 176.724C-149.701 176.724 404.036 176.724 38.0583 176.724C232.626 153.666 239.686 71.1297 584.195 71.1297C771.273 71.1297 850.329 113.069 1002.99 113.069C1155.65 113.069 1308.9 3 1486.78 3C1656.13 3 1697.46 61.8333 1921 61.8333V225.999L38.0585 226L38.0583 176.724Z" fill="#DBEDFC"/>
<path d="M728.71 107.506C581.07 143.379 155.055 157.348 -2 78.2997V271L1921 271V51C1841.83 93.2224 1693.29 157.03 1521.26 107.506C1349.23 57.9822 1325.69 176.57 1190.89 130.364C1056.09 84.1572 876.35 71.6331 728.71 107.506Z" fill="url(#paint0_linear_5618_46711)"/>
<defs>
<linearGradient id="paint0_linear_5618_46711" x1="1065.5" y1="27.1888" x2="1065.5" y2="271" gradientUnits="userSpaceOnUse">
<stop stop-color="#47A7E3"/>
<stop offset="1" stop-color="#4197D3"/>
</linearGradient>
</defs>
</svg>
