<svg width="35" height="23" viewBox="0 0 35 23" fill="none" xmlns="http://www.w3.org/2000/svg">
<path d="M33.4004 13.2427C34.2288 13.2427 34.9004 12.5711 34.9004 11.7427C34.9004 10.9142 34.2288 10.2427 33.4004 10.2427L33.4004 13.2427ZM0.568302 10.682C-0.0174865 11.2678 -0.0174866 12.2175 0.568302 12.8033L10.1142 22.3493C10.7 22.9351 11.6498 22.9351 12.2356 22.3493C12.8213 21.7635 12.8213 20.8137 12.2356 20.228L3.75028 11.7427L12.2356 3.25739C12.8214 2.67161 12.8214 1.72186 12.2356 1.13607C11.6498 0.550285 10.7 0.550285 10.1142 1.13607L0.568302 10.682ZM33.4004 10.2427L1.62896 10.2427L1.62896 13.2427L33.4004 13.2427L33.4004 10.2427Z" fill="#4299D5" fill-opacity="0.6"/>
</svg>
