<svg width="35" height="23" viewBox="0 0 35 23" fill="none" xmlns="http://www.w3.org/2000/svg">
<path d="M1.59961 9.75732C0.771182 9.75732 0.0996094 10.4289 0.0996094 11.2573C0.0996094 12.0858 0.771182 12.7573 1.59961 12.7573V9.75732ZM34.4317 12.318C35.0175 11.7322 35.0175 10.7825 34.4317 10.1967L24.8858 0.650723C24.3 0.0649357 23.3502 0.0649357 22.7644 0.650723C22.1786 1.23651 22.1786 2.18626 22.7644 2.77204L31.2497 11.2573L22.7644 19.7426C22.1786 20.3284 22.1786 21.2781 22.7644 21.8639C23.3502 22.4497 24.3 22.4497 24.8858 21.8639L34.4317 12.318ZM1.59961 12.7573H33.371V9.75732H1.59961V12.7573Z" fill="#4299D5" fill-opacity="0.6"/>
</svg>
