<svg width="20" height="23" viewBox="0 0 20 23" fill="none" xmlns="http://www.w3.org/2000/svg">
<path d="M9.25 15.5C9.25 15.9142 9.58579 16.25 10 16.25C10.4142 16.25 10.75 15.9142 10.75 15.5L9.25 15.5ZM10.5303 0.96967C10.2374 0.676777 9.76256 0.676777 9.46967 0.96967L4.6967 5.74264C4.40381 6.03553 4.40381 6.51041 4.6967 6.8033C4.98959 7.09619 5.46447 7.09619 5.75736 6.8033L10 2.56066L14.2426 6.8033C14.5355 7.09619 15.0104 7.09619 15.3033 6.8033C15.5962 6.51041 15.5962 6.03553 15.3033 5.74264L10.5303 0.96967ZM10.75 15.5L10.75 1.5L9.25 1.5L9.25 15.5L10.75 15.5Z" fill="white"/>
<path fill-rule="evenodd" clip-rule="evenodd" d="M6.94995 9.5H2C0.895431 9.5 0 10.3954 0 11.5V20.5C0 21.6046 0.895431 22.5 2 22.5H18C19.1046 22.5 20 21.6046 20 20.5V11.5C20 10.3954 19.1046 9.5 18 9.5H13V9.50164C12.9835 9.50055 12.9668 9.5 12.95 9.5C12.5357 9.5 12.2 9.83579 12.2 10.25C12.2 10.6642 12.5357 11 12.95 11C12.9668 11 12.9835 10.9994 13 10.9984V11H18C18.2761 11 18.5 11.2239 18.5 11.5V20.5C18.5 20.7761 18.2761 21 18 21H2C1.72386 21 1.5 20.7761 1.5 20.5V11.5C1.5 11.2239 1.72386 11 2 11H6.94995H7V10.9984C7.39088 10.9726 7.69995 10.6474 7.69995 10.25C7.69995 9.8526 7.39088 9.5274 7 9.50164V9.5H6.94995Z" fill="white"/>
</svg>
