<?xml version="1.0" encoding="utf-8"?>
<!-- Generator: Adobe Illustrator 25.4.1, SVG Export Plug-In . SVG Version: 6.00 Build 0)  -->
<svg version="1.1" id="Слой_1" xmlns="http://www.w3.org/2000/svg" xmlns:xlink="http://www.w3.org/1999/xlink" x="0px" y="0px"
	 viewBox="0 0 139 25" enable-background="new 0 0 139 25" xml:space="preserve">
<circle cx="20.6" cy="13.3" r="3.8"/>
<path d="M4.1,1.7C4.3,2.7,5,3.6,5.9,4c1,0.4,2,0.6,3,0.6c1.1,0,2.2,0,3.3-0.1c1.3-0.1,2.6,0,3.9,0.2c1.3,0.3,2.6,0.7,3.8,1.3
	c1.2,0.6,2.3,1.3,3.3,2.2c1,0.8,1.9,1.7,2.7,2.8c0.8,1,1.5,2.1,2,3.3l0.3,0.6L28,15.4c-0.1,0.2-0.2,0.4-0.3,0.6
	c-0.1,0.2-0.2,0.3-0.3,0.4c-0.2,0.3-0.4,0.5-0.7,0.8c-0.4,0.5-0.9,0.9-1.5,1.2c-1,0.7-2.1,1.2-3.3,1.5c-1.1,0.3-2.3,0.5-3.4,0.6
	h-1.7l-1.6-0.2v-0.2l1.6-0.1l1.6-0.2c1.1-0.2,2.1-0.5,3.1-0.9c1-0.4,1.9-0.9,2.8-1.6c0.8-0.7,1.5-1.5,2-2.4V15
	c-1.2-2-2.7-3.9-4.5-5.3c-1.8-1.5-3.9-2.5-6.2-3c-2.3-0.5-4.7,0-7-0.5C7.5,6,6.4,5.5,5.4,4.9c-1-0.7-1.6-2-1.4-3.2L4.1,1.7z"/>
<path d="M0.6,1.5c1.6,1.9,3.8,3.3,6.3,3.8c1.2,0.2,2.5,0.4,3.7,0.4c0.6,0,1.2,0,1.9,0c0.7,0,1.4,0,2,0c1.4,0.1,2.7,0.4,4,1
	c1.3,0.5,2.4,1.2,3.5,2.1c1,0.9,1.9,1.9,2.7,2.9c0.4,0.5,0.8,1.1,1.1,1.7c0.3,0.6,0.6,1.2,0.8,1.8h-0.1c-1.3-2.3-3-4.2-5.1-5.8
	c-2.1-1.6-4.5-2.5-7.1-2.8c-1.3-0.2-2.6,0-3.9-0.1C9.3,6.5,8,6.3,6.8,6C4.2,5.4,2,3.8,0.6,1.5L0.6,1.5z"/>
<path d="M0,9.3c0.8,0.6,1.8,0.9,2.8,1.1c1,0.2,2,0.2,3,0.2c2,0,4-0.3,5.9-0.7c2-0.5,4-0.8,6.1-1c1.1-0.1,2.1-0.1,3.2-0.1
	c0.6,0,1.1,0.1,1.7,0.1c0.3,0,0.6,0.1,0.9,0.2c0.1,0,0.3,0.1,0.5,0.1l0.3,0.1l0.2,0.1c0.1,0,0.2,0.1,0.2,0.1l-1.7,2.4h0.1l0,0h-0.1
	l-0.2-0.1c-0.2-0.1-0.4-0.1-0.6-0.2c-0.4-0.1-0.9-0.2-1.3-0.3c-0.9-0.1-1.9-0.2-2.9-0.2c-2,0-4,0-5.9,0.2c-2,0.2-4.1,0.2-6.1,0
	c-1-0.1-2-0.3-3-0.6C1.7,10.4,0.8,9.9,0,9.3z"/>
<circle fill="#FFFFFF" cx="22.9" cy="14.5" r="0.8"/>
<g enable-background="new    ">
	<path d="M41.8,18.6H36V7.4h1.3v10h4.5V18.6z"/>
	<path d="M54.6,18.6h-1.5L52,15.5h-4.8l-1.1,3.1h-1.5L49,7.4h1.4L54.6,18.6z M51.6,14.3l-1.8-4.8c-0.1-0.2-0.1-0.4-0.2-0.8h0
		c-0.1,0.3-0.1,0.6-0.2,0.8l-1.7,4.8H51.6z"/>
	<path d="M58.7,18.6V7.4h3.1c3.9,0,5.9,1.8,5.9,5.5c0,1.7-0.5,3.1-1.6,4.2c-1.1,1-2.6,1.6-4.4,1.6H58.7z M60,8.6v8.8h1.7
		c1.5,0,2.6-0.4,3.4-1.2c0.8-0.8,1.2-1.9,1.2-3.3c0-2.9-1.5-4.3-4.6-4.3H60z"/>
	<path d="M79.6,7.4l-3.7,7.1v4.1h-1.3v-4.1L71,7.4h1.5l2.5,5.1c0,0.1,0.1,0.3,0.3,0.7h0c0.1-0.2,0.2-0.4,0.3-0.7l2.6-5.1H79.6z"/>
	<path d="M90.2,8.6h-3.2v10h-1.3v-10h-3.2V7.4h7.8V8.6z"/>
	<path d="M98.8,18.8c-1.6,0-2.9-0.5-3.8-1.6c-1-1-1.4-2.4-1.4-4.1c0-1.8,0.5-3.2,1.5-4.3c1-1.1,2.3-1.6,4-1.6c1.5,0,2.8,0.5,3.7,1.6
		s1.4,2.4,1.4,4.1c0,1.8-0.5,3.3-1.5,4.3S100.5,18.8,98.8,18.8z M98.9,8.4c-1.2,0-2.1,0.4-2.9,1.3S95,11.6,95,13s0.4,2.5,1.1,3.3
		c0.7,0.8,1.6,1.3,2.8,1.3c1.2,0,2.2-0.4,2.9-1.2c0.7-0.8,1.1-1.9,1.1-3.4c0-1.5-0.3-2.6-1-3.4S100.1,8.4,98.9,8.4z"/>
	<path d="M122.1,7.4l-3.2,11.2h-1.5l-2.3-8.2c-0.1-0.3-0.2-0.7-0.2-1.1h0c0,0.4-0.1,0.8-0.2,1.1l-2.3,8.2h-1.5l-3.3-11.2h1.4
		l2.4,8.6c0.1,0.4,0.2,0.7,0.2,1.1h0c0-0.3,0.1-0.7,0.2-1.1l2.5-8.6h1.3l2.4,8.7c0.1,0.3,0.1,0.6,0.2,1h0c0-0.3,0.1-0.6,0.2-1.1
		l2.3-8.6H122.1z"/>
	<path d="M135.2,18.6h-1.6l-5.8-8.9c-0.1-0.2-0.3-0.5-0.4-0.7h0c0,0.2,0.1,0.8,0.1,1.5v8.1h-1.3V7.4h1.7l5.6,8.8
		c0.2,0.4,0.4,0.6,0.5,0.8h0c-0.1-0.3-0.1-0.9-0.1-1.6V7.4h1.3V18.6z"/>
</g>
</svg>
