<svg width="27" height="27" viewBox="0 0 27 27" fill="none" xmlns="http://www.w3.org/2000/svg">
<g clip-path="url(#clip0_13261_343)">
<path d="M8.25235 7.81643C6.75052 9.31823 6.75052 11.7618 8.25232 13.2636L9.05001 12.4659C7.9881 11.404 7.98807 9.67613 9.05004 8.61417C10.112 7.55224 11.8399 7.55224 12.9018 8.61414L13.6995 7.81646C12.1977 6.31463 9.75412 6.31466 8.25235 7.81643Z" fill="#6E9C9F"/>
<path d="M9.84121 9.39118C9.20904 10.0233 9.20901 11.052 9.84118 11.6842L10.6389 10.8865C10.5457 10.7933 10.4944 10.6695 10.4944 10.5377C10.4944 10.406 10.5457 10.2821 10.6389 10.1889C10.7321 10.0957 10.856 10.0444 10.9877 10.0444C11.1195 10.0444 11.2434 10.0957 11.3365 10.1889L12.1342 9.3912C11.502 8.75901 10.4734 8.75901 9.84121 9.39118Z" fill="#6E9C9F"/>
<path d="M19.7483 7.43512L17.8551 5.54846L13.9234 9.47365L15.4476 11.0478C15.1922 11.5012 14.638 12.3699 13.6934 13.3145C12.7487 14.2592 11.8737 14.8197 11.4159 15.0792L9.87267 13.5556L6.00232 17.4029L7.88516 19.2983C8.60492 20.0181 9.70004 20.2046 10.6103 19.7625C11.9993 19.0879 14.0955 17.8431 16.1944 15.7443C18.2932 13.6455 19.5379 11.5492 20.2125 10.1602C20.3724 9.83107 20.45 9.47786 20.45 9.1269C20.4501 8.50718 20.2079 7.89463 19.7483 7.43512ZM19.1978 9.66731C18.561 10.9784 17.3846 12.9586 15.3967 14.9466C13.4087 16.9345 11.4285 18.1109 10.1174 18.7477C9.63941 18.9799 9.06293 18.8806 8.68426 18.5019L7.59752 17.4079L9.87549 15.1436L11.1902 16.4415L11.542 16.2849C11.5991 16.2595 12.9595 15.6438 14.4912 14.1121C16.0239 12.5795 16.6267 11.2305 16.6516 11.1738L16.8041 10.8268L15.5068 9.48703L17.856 7.14177L18.9512 8.23325C19.3307 8.61328 19.4299 9.18951 19.1978 9.66731Z" fill="#6E9C9F"/>
</g>
<defs>
<clipPath id="clip0_13261_343">
<rect width="17" height="17" fill="white" transform="translate(6 3)"/>
</clipPath>
</defs>
</svg>
