<svg width="21" height="21" viewBox="0 0 21 21" fill="none" xmlns="http://www.w3.org/2000/svg">
<path d="M18.5085 4.7161L18.498 4.67578C19.3878 4.14237 20.1062 3.26304 20.4258 2.25586C19.5924 2.75162 18.6173 3.12773 17.6367 3.32227C16.8504 2.48448 15.8012 1.96875 14.5605 1.96875C12.1827 1.96875 10.2129 3.8939 10.2129 6.27539C10.2129 6.61426 10.2608 6.946 10.3359 7.25977V7.30078C6.7919 7.09833 3.58304 5.29594 1.47656 2.70703C1.10689 3.344 0.902344 4.25422 0.902344 5.04492C0.902344 6.27539 1.633 7.92344 2.78906 8.69531V8.77734C2.09877 8.74949 1.39174 8.27396 0.820312 7.95703C0.820312 7.97586 0.845332 7.9985 0.845332 8.01732C0.845332 10.107 2.37702 11.9093 4.34766 12.3047C4.00423 12.3955 3.52054 12.4688 3.1582 12.4688C2.87938 12.4688 2.60105 12.3959 2.33789 12.3457C2.88615 14.0589 4.4707 15.1758 6.35742 15.1758V15.2168C4.88886 16.3553 3.02745 17.1445 1.02539 17.1445C0.677619 17.1445 0.246094 17.1035 0 17.0625C1.90481 18.2862 4.16924 19.0312 6.60352 19.0312C14.5267 19.0312 18.8672 12.5098 18.8672 6.80859V6.23438C19.7099 5.62566 20.4235 4.8035 21 3.9375C21 3.9375 19.4879 4.654 18.5085 4.7161ZM17.2266 6.80859C17.2266 8.03955 16.9855 9.3322 16.5293 10.5468C16.0499 11.8232 15.3599 12.975 14.4785 13.97C13.0961 15.5305 10.6078 17.3906 6.60352 17.3906C6.48584 17.3906 6.36837 17.3886 6.2509 17.3845C6.63752 17.1602 7.00908 16.9106 7.36263 16.6365L7.99805 16.1439V15.3398V15.1758V13.5352L7.32215 13.5276C6.58309 13.5194 5.98828 12.918 5.98828 12.1789V10.8375L5.10107 10.6371C4.70847 10.5484 4.42969 10.1997 4.42969 9.7972V8.77734V8.6543L4.40918 7.81803L3.67955 7.33089C3.36447 7.0658 3.07892 6.68719 2.87548 6.27744C5.02835 7.84744 7.58518 8.78694 10.2424 8.93874L11.9766 9.03779V7.30078V7.25977V7.06597L11.9314 6.8775C11.8797 6.6618 11.8535 6.45922 11.8535 6.27539C11.8535 5.56894 12.1354 4.90186 12.6472 4.397C13.162 3.8891 13.8416 3.60938 14.5605 3.60938C15.2875 3.60938 15.92 3.89054 16.4405 4.44507L16.8591 4.89103L16.9097 5.08668L16.9201 5.12699L17.2266 6.31153V6.80859Z" fill="black"/>
</svg>
