<svg id="Слой_1" data-name="Слой 1" xmlns="http://www.w3.org/2000/svg" width="72" height="72" viewBox="0 0 72 72">
  <defs>
    <style>
      .cls-1 {
        fill: #3029d9;
      }

      .cls-2, .cls-3 {
        fill: none;
        stroke: #fff;
        stroke-linecap: round;
        stroke-linejoin: round;
        stroke-width: 4px;
      }

      .cls-2 {
        isolation: isolate;
        opacity: 0.4;
      }
    </style>
  </defs>
  <path class="cls-1" d="M281.11,134a36,36,0,0,0-36-36h0a36,36,0,0,0-36,36v36h36a36,36,0,0,0,36-36Z" transform="translate(-209.11 -98)"/>
  <path class="cls-2" d="M256.13,132.15a5.66,5.66,0,1,0,0-11.31" transform="translate(-209.11 -98)"/>
  <path class="cls-3" d="M258.74,138.3a19.88,19.88,0,0,1,2.77.4c1.27.25,2.8.77,3.34,1.91a2.67,2.67,0,0,1,0,2.31c-.54,1.14-2.07,1.66-3.34,1.92" transform="translate(-209.11 -98)"/>
  <path class="cls-2" d="M234.09,132.15a5.66,5.66,0,1,1,0-11.31" transform="translate(-209.11 -98)"/>
  <path class="cls-3" d="M231.48,138.3a19.88,19.88,0,0,0-2.77.4c-1.27.25-2.8.77-3.34,1.91a2.67,2.67,0,0,0,0,2.31c.54,1.14,2.07,1.66,3.34,1.92" transform="translate(-209.11 -98)"/>
  <path class="cls-3" d="M245.1,139.52c6.33,0,11.74,1,11.74,4.79s-5.37,4.83-11.74,4.83-11.74-1-11.74-4.79S238.73,139.52,245.1,139.52Z" transform="translate(-209.11 -98)"/>
  <path class="cls-2" d="M245.1,134.05a7.53,7.53,0,1,1,7.53-7.53A7.5,7.5,0,0,1,245.1,134.05Z" transform="translate(-209.11 -98)"/>
</svg>
