<svg id="Слой_1" data-name="Слой 1" xmlns="http://www.w3.org/2000/svg" width="72" height="72" viewBox="0 0 72 72">
  <defs>
    <style>
      .cls-1 {
        fill: #3029d9;
      }

      .cls-2, .cls-3 {
        fill: none;
        stroke: #fff;
        stroke-linecap: round;
        stroke-linejoin: round;
        stroke-width: 4px;
      }

      .cls-3 {
        isolation: isolate;
        opacity: 0.4;
      }
    </style>
  </defs>
  <path class="cls-1" d="M265.41,136.37a36,36,0,0,0-36-36h0a36,36,0,0,0-36,36v36h36a36,36,0,0,0,36-36Z" transform="translate(-193.41 -100.37)"/>
  <g>
    <path class="cls-2" d="M223.1,137v7.49" transform="translate(-193.41 -100.37)"/>
    <path class="cls-2" d="M226.93,140.75h-7.65" transform="translate(-193.41 -100.37)"/>
    <path class="cls-2" d="M236.14,137.23h-.21" transform="translate(-193.41 -100.37)"/>
    <path class="cls-2" d="M239.77,144.38h-.22" transform="translate(-193.41 -100.37)"/>
    <path class="cls-3" d="M221.55,116.37a2.71,2.71,0,0,0,2.74,2.68h2.11a4.21,4.21,0,0,1,4.23,4.15v1.35" transform="translate(-193.41 -100.37)"/>
    <path class="cls-2" d="M238.26,156.3q-9,.15-17.71,0c-6.44,0-11.14-4.59-11.14-10.9v-9.3c0-6.31,4.7-10.91,11.14-10.91q8.76-.15,17.71,0c6.44,0,11.15,4.6,11.15,10.91v9.3C249.41,151.71,244.7,156.3,238.26,156.3Z" transform="translate(-193.41 -100.37)"/>
  </g>
</svg>
