<svg width="28" height="34" viewBox="0 0 28 34" fill="none" xmlns="http://www.w3.org/2000/svg">
<mask id="mask0_2_438" style="mask-type:alpha" maskUnits="userSpaceOnUse" x="0" y="0" width="22" height="34">
<path d="M0 34L4.65448 34C14.0433 34 21.6545 26.3888 21.6545 17L21.6545 10.8272C21.6545 4.84753 16.807 5.28401e-06 10.8272 4.76124e-06V4.76124e-06C4.84752 4.23848e-06 2.54859e-06 4.84752 2.02583e-06 10.8272L0 34Z" fill="#C4C4C4"/>
</mask>
<g mask="url(#mask0_2_438)">
<rect x="-18.6676" y="-21.9531" width="49.7804" height="74.6706" fill="url(#paint0_linear_2_438)"/>
</g>
<mask id="mask1_2_438" style="mask-type:alpha" maskUnits="userSpaceOnUse" x="0" y="9" width="28" height="25">
<path d="M0 34L15.4568 34C22.2338 34 27.7277 28.5062 27.7277 21.7291V21.7291C27.7277 14.9521 22.2338 9.45828 15.4568 9.45828L13.8638 9.45828C6.20706 9.45828 1.60287e-06 15.6653 9.33491e-07 23.3221L0 34Z" fill="#C4C4C4"/>
</mask>
<g mask="url(#mask1_2_438)">
<rect x="-41.7158" y="-1.39404" width="69.4436" height="46.2957" fill="url(#paint1_linear_2_438)"/>
</g>
<defs>
<linearGradient id="paint0_linear_2_438" x1="6.22259" y1="-21.9531" x2="6.22259" y2="52.7174" gradientUnits="userSpaceOnUse">
<stop stop-color="white"/>
<stop offset="1" stop-color="white" stop-opacity="0"/>
</linearGradient>
<linearGradient id="paint1_linear_2_438" x1="-6.99401" y1="-1.39404" x2="-6.99401" y2="44.9017" gradientUnits="userSpaceOnUse">
<stop stop-color="white"/>
<stop offset="1" stop-color="white" stop-opacity="0"/>
</linearGradient>
</defs>
</svg>
