<svg width="152" height="156" viewBox="0 0 152 156" fill="none" xmlns="http://www.w3.org/2000/svg">
<circle cx="1.00012" cy="1.00006" r="1" fill="white"/>
<circle cx="16.0001" cy="1.00006" r="1" fill="white"/>
<circle cx="31.0001" cy="1.00006" r="1" fill="white"/>
<circle cx="46.0001" cy="1.00006" r="1" fill="white"/>
<circle cx="61.0001" cy="1.00006" r="1" fill="white"/>
<circle cx="76.0001" cy="1.00006" r="1" fill="white"/>
<circle cx="91.0001" cy="1.00006" r="1" fill="white"/>
<circle cx="106" cy="1.00006" r="1" fill="white"/>
<circle cx="121" cy="1.00006" r="1" fill="white"/>
<circle cx="136" cy="1.00006" r="1" fill="white"/>
<circle cx="151" cy="1.00006" r="1" fill="white"/>
<circle cx="1.00012" cy="15.0001" r="1" fill="white"/>
<circle cx="16.0001" cy="15.0001" r="1" fill="white"/>
<circle cx="31.0001" cy="15.0001" r="1" fill="white"/>
<circle cx="46.0001" cy="15.0001" r="1" fill="white"/>
<circle cx="61.0001" cy="15.0001" r="1" fill="white"/>
<circle cx="76.0001" cy="15.0001" r="1" fill="white"/>
<circle cx="91.0001" cy="15.0001" r="1" fill="white"/>
<circle cx="106" cy="15.0001" r="1" fill="white"/>
<circle cx="121" cy="15.0001" r="1" fill="white"/>
<circle cx="136" cy="15.0001" r="1" fill="white"/>
<circle cx="151" cy="15.0001" r="1" fill="white"/>
<circle cx="1.00012" cy="29.0001" r="1" fill="white"/>
<circle cx="16.0001" cy="29.0001" r="1" fill="white"/>
<circle cx="31.0001" cy="29.0001" r="1" fill="white"/>
<circle cx="46.0001" cy="29.0001" r="1" fill="white"/>
<circle cx="61.0001" cy="29.0001" r="1" fill="white"/>
<circle cx="76.0001" cy="29.0001" r="1" fill="white"/>
<circle cx="91.0001" cy="29.0001" r="1" fill="white"/>
<circle cx="106" cy="29.0001" r="1" fill="white"/>
<circle cx="121" cy="29.0001" r="1" fill="white"/>
<circle cx="136" cy="29.0001" r="1" fill="white"/>
<circle cx="151" cy="29.0001" r="1" fill="white"/>
<circle cx="1.00012" cy="43.0001" r="1" fill="white"/>
<circle cx="16.0001" cy="43.0001" r="1" fill="white"/>
<circle cx="31.0001" cy="43.0001" r="1" fill="white"/>
<circle cx="46.0001" cy="43.0001" r="1" fill="white"/>
<circle cx="61.0001" cy="43.0001" r="1" fill="white"/>
<circle cx="76.0001" cy="43.0001" r="1" fill="white"/>
<circle cx="91.0001" cy="43.0001" r="1" fill="white"/>
<circle cx="106" cy="43.0001" r="1" fill="white"/>
<circle cx="121" cy="43.0001" r="1" fill="white"/>
<circle cx="136" cy="43.0001" r="1" fill="white"/>
<circle cx="151" cy="43.0001" r="1" fill="white"/>
<circle cx="1.00012" cy="57.0001" r="1" fill="white"/>
<circle cx="16.0001" cy="57.0001" r="1" fill="white"/>
<circle cx="31.0001" cy="57.0001" r="1" fill="white"/>
<circle cx="46.0001" cy="57.0001" r="1" fill="white"/>
<circle cx="61.0001" cy="57.0001" r="1" fill="white"/>
<circle cx="76.0001" cy="57.0001" r="1" fill="white"/>
<circle cx="91.0001" cy="57.0001" r="1" fill="white"/>
<circle cx="106" cy="57.0001" r="1" fill="white"/>
<circle cx="121" cy="57.0001" r="1" fill="white"/>
<circle cx="136" cy="57.0001" r="1" fill="white"/>
<circle cx="151" cy="57.0001" r="1" fill="white"/>
<circle cx="1.00012" cy="71.0001" r="1" fill="white"/>
<circle cx="16.0001" cy="71.0001" r="1" fill="white"/>
<circle cx="31.0001" cy="71.0001" r="1" fill="white"/>
<circle cx="46.0001" cy="71.0001" r="1" fill="white"/>
<circle cx="61.0001" cy="71.0001" r="1" fill="white"/>
<circle cx="76.0001" cy="71.0001" r="1" fill="white"/>
<circle cx="91.0001" cy="71.0001" r="1" fill="white"/>
<circle cx="106" cy="71.0001" r="1" fill="white"/>
<circle cx="121" cy="71.0001" r="1" fill="white"/>
<circle cx="136" cy="71.0001" r="1" fill="white"/>
<circle cx="151" cy="71.0001" r="1" fill="white"/>
<circle cx="1.00012" cy="85.0001" r="1" fill="white"/>
<circle cx="16.0001" cy="85.0001" r="1" fill="white"/>
<circle cx="31.0001" cy="85.0001" r="1" fill="white"/>
<circle cx="46.0001" cy="85.0001" r="1" fill="white"/>
<circle cx="61.0001" cy="85.0001" r="1" fill="white"/>
<circle cx="76.0001" cy="85.0001" r="1" fill="white"/>
<circle cx="91.0001" cy="85.0001" r="1" fill="white"/>
<circle cx="106" cy="85.0001" r="1" fill="white"/>
<circle cx="121" cy="85.0001" r="1" fill="white"/>
<circle cx="136" cy="85.0001" r="1" fill="white"/>
<circle cx="151" cy="85.0001" r="1" fill="white"/>
<circle cx="1.00012" cy="99.0001" r="1" fill="white"/>
<circle cx="16.0001" cy="99.0001" r="1" fill="white"/>
<circle cx="31.0001" cy="99.0001" r="1" fill="white"/>
<circle cx="46.0001" cy="99.0001" r="1" fill="white"/>
<circle cx="61.0001" cy="99.0001" r="1" fill="white"/>
<circle cx="76.0001" cy="99.0001" r="1" fill="white"/>
<circle cx="91.0001" cy="99.0001" r="1" fill="white"/>
<circle cx="106" cy="99.0001" r="1" fill="white"/>
<circle cx="121" cy="99.0001" r="1" fill="white"/>
<circle cx="136" cy="99.0001" r="1" fill="white"/>
<circle cx="151" cy="99.0001" r="1" fill="white"/>
<circle cx="1.00012" cy="113" r="1" fill="white"/>
<circle cx="16.0001" cy="113" r="1" fill="white"/>
<circle cx="31.0001" cy="113" r="1" fill="white"/>
<circle cx="46.0001" cy="113" r="1" fill="white"/>
<circle cx="61.0001" cy="113" r="1" fill="white"/>
<circle cx="76.0001" cy="113" r="1" fill="white"/>
<circle cx="91.0001" cy="113" r="1" fill="white"/>
<circle cx="106" cy="113" r="1" fill="white"/>
<circle cx="121" cy="113" r="1" fill="white"/>
<circle cx="136" cy="113" r="1" fill="white"/>
<circle cx="151" cy="113" r="1" fill="white"/>
<circle cx="1.00012" cy="127" r="1" fill="white"/>
<circle cx="16.0001" cy="127" r="1" fill="white"/>
<circle cx="31.0001" cy="127" r="1" fill="white"/>
<circle cx="46.0001" cy="127" r="1" fill="white"/>
<circle cx="61.0001" cy="127" r="1" fill="white"/>
<circle cx="76.0001" cy="127" r="1" fill="white"/>
<circle cx="91.0001" cy="127" r="1" fill="white"/>
<circle cx="106" cy="127" r="1" fill="white"/>
<circle cx="121" cy="127" r="1" fill="white"/>
<circle cx="136" cy="127" r="1" fill="white"/>
<circle cx="151" cy="127" r="1" fill="white"/>
<circle cx="1.00012" cy="141" r="1" fill="white"/>
<circle cx="16.0001" cy="141" r="1" fill="white"/>
<circle cx="31.0001" cy="141" r="1" fill="white"/>
<circle cx="46.0001" cy="141" r="1" fill="white"/>
<circle cx="61.0001" cy="141" r="1" fill="white"/>
<circle cx="76.0001" cy="141" r="1" fill="white"/>
<circle cx="91.0001" cy="141" r="1" fill="white"/>
<circle cx="106" cy="141" r="1" fill="white"/>
<circle cx="121" cy="141" r="1" fill="white"/>
<circle cx="136" cy="141" r="1" fill="white"/>
<circle cx="151" cy="141" r="1" fill="white"/>
<circle cx="1.00012" cy="155" r="1" fill="white"/>
<circle cx="16.0001" cy="155" r="1" fill="white"/>
<circle cx="31.0001" cy="155" r="1" fill="white"/>
<circle cx="46.0001" cy="155" r="1" fill="white"/>
<circle cx="61.0001" cy="155" r="1" fill="white"/>
<circle cx="76.0001" cy="155" r="1" fill="white"/>
<circle cx="91.0001" cy="155" r="1" fill="white"/>
<circle cx="106" cy="155" r="1" fill="white"/>
<circle cx="121" cy="155" r="1" fill="white"/>
<circle cx="136" cy="155" r="1" fill="white"/>
<circle cx="151" cy="155" r="1" fill="white"/>
</svg>
