<svg width="31" height="42" viewBox="0 0 31 42" fill="none" xmlns="http://www.w3.org/2000/svg">
<path d="M13.3408 39.1514C13.3408 40.2559 14.2363 41.1514 15.3408 41.1514C16.4454 41.1514 17.3408 40.2559 17.3408 39.1514H13.3408ZM16.755 0.75602C15.974 -0.0250282 14.7077 -0.0250282 13.9266 0.75602L1.19868 13.4839C0.417636 14.265 0.417636 15.5313 1.19868 16.3124C1.97973 17.0934 3.24606 17.0934 4.02711 16.3124L15.3408 4.99866L26.6545 16.3124C27.4356 17.0934 28.7019 17.0934 29.483 16.3124C30.264 15.5313 30.264 14.265 29.483 13.4839L16.755 0.75602ZM17.3408 39.1514L17.3408 2.17023H13.3408L13.3408 39.1514H17.3408Z" fill="white"/>
</svg>
