<svg width="73" height="70" viewBox="0 0 73 70" fill="none" xmlns="http://www.w3.org/2000/svg">
<path d="M68.5638 32.2114C68.5638 51.1119 53.3761 67.4437 34.5983 68.7112C15.7423 69.9675 0.40918 55.5874 0.40918 36.5636C0.40918 17.5397 15.7423 1.20788 34.5871 0.0637569C53.3761 -1.08037 68.5638 13.3109 68.5638 32.2114Z" fill="#303030"/>
<path d="M72.5906 33.4223C72.5906 52.3228 57.4029 68.6546 38.6252 69.9221C19.7692 71.1896 4.44727 56.7983 4.44727 37.7857C4.44727 18.7731 19.7692 2.41882 38.6252 1.27469C57.4141 0.130571 72.5906 14.5218 72.5906 33.4223Z" fill="#47A7E3"/>
<path d="M39.8773 27.6791C43.1653 28.2175 45.7712 29.5859 47.706 31.7957C49.6296 34.0054 50.6026 36.7199 50.6026 39.9504C50.6026 43.6519 49.3612 46.6581 46.8784 48.9575C44.3956 51.2682 41.1075 52.4123 37.0142 52.4123C32.8873 52.4123 29.5881 51.257 27.1276 48.9575C24.656 46.6581 23.4258 43.6519 23.4258 39.9504C23.4258 37.3256 24.0633 35.0374 25.3382 33.0856L35.8063 16.2715H47.0797L39.8773 27.6791ZM33.4913 39.9391C33.4913 42.2274 34.6656 43.3715 37.0142 43.3715C39.3628 43.3715 40.5371 42.2274 40.5371 39.9391C40.5371 37.6509 39.3628 36.5068 37.0142 36.5068C34.6656 36.5068 33.4913 37.6509 33.4913 39.9391Z" fill="white"/>
</svg>
