<svg width="73" height="71" viewBox="0 0 73 71" fill="none" xmlns="http://www.w3.org/2000/svg">
<path d="M68.9281 32.2183C68.9281 51.1206 53.568 67.4539 34.5772 68.7215C15.5071 69.9779 0 55.5965 0 36.5709C0 17.5452 15.5071 1.2119 34.5659 0.0676691C53.568 -1.07656 68.9281 13.3161 68.9281 32.2183Z" fill="#303030"/>
<path d="M72.9998 33.4297C72.9998 52.3319 57.6397 68.6653 38.6489 69.9329C19.5788 71.2005 4.08301 56.8079 4.08301 37.7935C4.08301 18.7791 19.5788 2.42332 38.6489 1.27909C57.651 0.134865 72.9998 14.5275 72.9998 33.4297Z" fill="#47A7E3"/>
<path d="M37.3485 16.8379H46.0013V52.1744H35.8216V27.3828L29.6685 28.8523L27.3271 20.4164L37.3485 16.8379Z" fill="white"/>
</svg>
